<svg width="800" height="400" viewBox="0 0 800 400" fill="none" xmlns="http://www.w3.org/2000/svg">
  <!-- Sky gradient background -->
  <defs>
    <linearGradient id="skyGradient" x1="0%" y1="0%" x2="0%" y2="100%">
      <stop offset="0%" style="stop-color:#87CEEB;stop-opacity:1" />
      <stop offset="100%" style="stop-color:#E0F6FF;stop-opacity:1" />
    </linearGradient>
    <linearGradient id="mountainGradient" x1="0%" y1="0%" x2="0%" y2="100%">
      <stop offset="0%" style="stop-color:#8B9DC3;stop-opacity:1" />
      <stop offset="100%" style="stop-color:#DDE7F0;stop-opacity:1" />
    </linearGradient>
    <linearGradient id="roadGradient" x1="0%" y1="0%" x2="0%" y2="100%">
      <stop offset="0%" style="stop-color:#696969;stop-opacity:1" />
      <stop offset="100%" style="stop-color:#2F4F4F;stop-opacity:1" />
    </linearGradient>
  </defs>
  
  <!-- Sky -->
  <rect width="800" height="300" fill="url(#skyGradient)"/>
  
  <!-- Mountains -->
  <path d="M0 200 L100 120 L200 160 L300 100 L400 140 L500 80 L600 120 L700 90 L800 130 L800 300 L0 300 Z" fill="url(#mountainGradient)"/>
  
  <!-- Road -->
  <path d="M0 300 L200 280 L400 270 L600 275 L800 280 L800 400 L0 400 Z" fill="url(#roadGradient)"/>
  
  <!-- Road markings -->
  <rect x="150" y="290" width="30" height="4" fill="white" opacity="0.8"/>
  <rect x="250" y="285" width="30" height="4" fill="white" opacity="0.8"/>
  <rect x="350" y="282" width="30" height="4" fill="white" opacity="0.8"/>
  <rect x="450" y="284" width="30" height="4" fill="white" opacity="0.8"/>
  <rect x="550" y="287" width="30" height="4" fill="white" opacity="0.8"/>
  
  <!-- Motorhome -->
  <g transform="translate(300, 220) scale(3)">
    <!-- Main body -->
    <rect x="0" y="8" width="40" height="20" rx="3" fill="#E8E8E8"/>
    <!-- Windshield -->
    <path d="M0 8 L5 3 L35 3 L40 8 Z" fill="#87CEEB" opacity="0.7"/>
    <!-- Cab -->
    <rect x="0" y="8" width="12" height="15" rx="2" fill="#E8E8E8"/>
    <!-- Wheels -->
    <circle cx="8" cy="30" r="5" fill="#2F4F4F"/>
    <circle cx="32" cy="30" r="5" fill="#2F4F4F"/>
    <!-- Wheel rims -->
    <circle cx="8" cy="30" r="3" fill="#C0C0C0"/>
    <circle cx="32" cy="30" r="3" fill="#C0C0C0"/>
    <!-- Door -->
    <rect x="35" y="12" width="2" height="12" fill="#A0A0A0"/>
    <!-- Windows -->
    <rect x="2" y="10" width="8" height="5" rx="1" fill="#87CEEB" opacity="0.7"/>
    <rect x="15" y="12" width="8" height="4" rx="1" fill="#87CEEB" opacity="0.7"/>
    <rect x="25" y="12" width="8" height="4" rx="1" fill="#87CEEB" opacity="0.7"/>
    <!-- Side details -->
    <rect x="12" y="18" width="25" height="3" fill="#A0A0A0"/>
    <!-- Awning -->
    <path d="M12 12 L12 8 L35 8 L35 12" stroke="#FF6B6B" stroke-width="1" fill="none"/>
  </g>
  
  <!-- Trees -->
  <g transform="translate(50, 180)">
    <!-- Tree trunk -->
    <rect x="8" y="80" width="4" height="20" fill="#8B4513"/>
    <!-- Tree foliage -->
    <circle cx="10" cy="80" r="15" fill="#228B22"/>
  </g>
  
  <g transform="translate(650, 170)">
    <!-- Tree trunk -->
    <rect x="8" y="90" width="4" height="25" fill="#8B4513"/>
    <!-- Tree foliage -->
    <circle cx="10" cy="90" r="18" fill="#228B22"/>
  </g>
  
  <!-- Clouds -->
  <g transform="translate(100, 40)">
    <circle cx="0" cy="10" r="15" fill="white" opacity="0.8"/>
    <circle cx="15" cy="8" r="20" fill="white" opacity="0.8"/>
    <circle cx="35" cy="12" r="15" fill="white" opacity="0.8"/>
  </g>
  
  <g transform="translate(500, 20)">
    <circle cx="0" cy="10" r="12" fill="white" opacity="0.6"/>
    <circle cx="12" cy="8" r="15" fill="white" opacity="0.6"/>
    <circle cx="25" cy="12" r="12" fill="white" opacity="0.6"/>
  </g>
</svg>