<svg width="1200" height="600" viewBox="0 0 1200 600" fill="none" xmlns="http://www.w3.org/2000/svg">
  <!-- Sky gradient -->
  <defs>
    <linearGradient id="skyBg" x1="0%" y1="0%" x2="0%" y2="100%">
      <stop offset="0%" style="stop-color:#FF7F50;stop-opacity:1" />
      <stop offset="30%" style="stop-color:#FFB347;stop-opacity:1" />
      <stop offset="70%" style="stop-color:#87CEEB;stop-opacity:1" />
      <stop offset="100%" style="stop-color:#E0F6FF;stop-opacity:1" />
    </linearGradient>
    <linearGradient id="mountainBg" x1="0%" y1="0%" x2="0%" y2="100%">
      <stop offset="0%" style="stop-color:#4B0082;stop-opacity:0.8" />
      <stop offset="100%" style="stop-color:#8B9DC3;stop-opacity:0.6" />
    </linearGradient>
  </defs>
  
  <!-- Sky -->
  <rect width="1200" height="450" fill="url(#skyBg)"/>
  
  <!-- Mountain layers -->
  <path d="M0 300 L200 200 L400 250 L600 150 L800 200 L1000 100 L1200 150 L1200 450 L0 450 Z" fill="url(#mountainBg)"/>
  <path d="M0 350 L150 280 L300 320 L450 250 L600 290 L750 220 L900 260 L1050 200 L1200 240 L1200 450 L0 450 Z" fill="#8B9DC3" opacity="0.4"/>
  
  <!-- Ground/grass -->
  <rect x="0" y="450" width="1200" height="150" fill="#90EE90"/>
  
  <!-- Road -->
  <path d="M0 500 L300 480 L600 470 L900 475 L1200 480 L1200 520 L900 515 L600 510 L300 520 L0 540 Z" fill="#696969"/>
  
  <!-- Road markings -->
  <rect x="100" y="490" width="40" height="5" fill="white" opacity="0.8"/>
  <rect x="200" y="488" width="40" height="5" fill="white" opacity="0.8"/>
  <rect x="300" y="485" width="40" height="5" fill="white" opacity="0.8"/>
  <rect x="400" y="483" width="40" height="5" fill="white" opacity="0.8"/>
  <rect x="500" y="482" width="40" height="5" fill="white" opacity="0.8"/>
  <rect x="600" y="483" width="40" height="5" fill="white" opacity="0.8"/>
  <rect x="700" y="485" width="40" height="5" fill="white" opacity="0.8"/>
  <rect x="800" y="487" width="40" height="5" fill="white" opacity="0.8"/>
  <rect x="900" y="490" width="40" height="5" fill="white" opacity="0.8"/>
  <rect x="1000" y="492" width="40" height="5" fill="white" opacity="0.8"/>
  
  <!-- Trees -->
  <g transform="translate(100, 350)">
    <rect x="15" y="70" width="6" height="30" fill="#8B4513"/>
    <circle cx="18" cy="70" r="20" fill="#228B22"/>
  </g>
  
  <g transform="translate(250, 360)">
    <rect x="12" y="60" width="5" height="25" fill="#8B4513"/>
    <circle cx="14.5" cy="60" r="15" fill="#228B22"/>
  </g>
  
  <g transform="translate(800, 340)">
    <rect x="18" y="80" width="7" height="35" fill="#8B4513"/>
    <circle cx="21.5" cy="80" r="25" fill="#228B22"/>
  </g>
  
  <g transform="translate(1000, 355)">
    <rect x="10" y="65" width="4" height="20" fill="#8B4513"/>
    <circle cx="12" cy="65" r="12" fill="#228B22"/>
  </g>
  
  <!-- Clouds -->
  <g transform="translate(200, 80)">
    <circle cx="0" cy="15" r="20" fill="white" opacity="0.7"/>
    <circle cx="20" cy="12" r="25" fill="white" opacity="0.7"/>
    <circle cx="45" cy="18" r="18" fill="white" opacity="0.7"/>
  </g>
  
  <g transform="translate(600, 60)">
    <circle cx="0" cy="12" r="15" fill="white" opacity="0.5"/>
    <circle cx="15" cy="10" r="20" fill="white" opacity="0.5"/>
    <circle cx="35" cy="15" r="15" fill="white" opacity="0.5"/>
  </g>
  
  <g transform="translate(900, 100)">
    <circle cx="0" cy="10" r="12" fill="white" opacity="0.6"/>
    <circle cx="12" cy="8" r="16" fill="white" opacity="0.6"/>
    <circle cx="28" cy="12" r="12" fill="white" opacity="0.6"/>
  </g>
  
  <!-- Sun/Moon (can be used for day/night themes) -->
  <circle cx="1000" cy="120" r="40" fill="#FFD700" opacity="0.8"/>
</svg>